<svg width="1920" height="1080" viewBox="0 0 1920 1080" fill="none" xmlns="http://www.w3.org/2000/svg">
<rect width="1920" height="1080" fill="white"/>
<rect width="1920" height="1080" fill="url(#paint0_linear_2:3)" fill-opacity="0.2"/>
<path d="M700.637 395.75V400.867H704.582V403.66H700.637V416.766C700.637 417.612 700.812 418.25 701.164 418.68C701.516 419.096 702.115 419.305 702.961 419.305C703.378 419.305 703.951 419.227 704.68 419.07V422C703.729 422.26 702.805 422.391 701.906 422.391C700.292 422.391 699.074 421.902 698.254 420.926C697.434 419.949 697.023 418.562 697.023 416.766V403.66H693.176V400.867H697.023V395.75H700.637ZM707.473 411.238C707.473 409.168 707.876 407.306 708.684 405.652C709.504 403.999 710.637 402.723 712.082 401.824C713.54 400.926 715.201 400.477 717.062 400.477C719.94 400.477 722.264 401.473 724.035 403.465C725.819 405.457 726.711 408.107 726.711 411.414V411.668C726.711 413.725 726.314 415.574 725.52 417.215C724.738 418.842 723.612 420.112 722.141 421.023C720.682 421.935 719.003 422.391 717.102 422.391C714.237 422.391 711.913 421.395 710.129 419.402C708.358 417.41 707.473 414.773 707.473 411.492V411.238ZM711.105 411.668C711.105 414.012 711.646 415.893 712.727 417.312C713.82 418.732 715.279 419.441 717.102 419.441C718.938 419.441 720.396 418.725 721.477 417.293C722.557 415.848 723.098 413.829 723.098 411.238C723.098 408.921 722.544 407.046 721.438 405.613C720.344 404.168 718.885 403.445 717.062 403.445C715.279 403.445 713.84 404.155 712.746 405.574C711.652 406.993 711.105 409.025 711.105 411.668ZM749.641 419.441C750.93 419.441 752.056 419.051 753.02 418.27C753.983 417.488 754.517 416.512 754.621 415.34H758.039C757.974 416.551 757.557 417.703 756.789 418.797C756.021 419.891 754.992 420.763 753.703 421.414C752.427 422.065 751.073 422.391 749.641 422.391C746.763 422.391 744.471 421.434 742.766 419.52C741.073 417.592 740.227 414.962 740.227 411.629V411.023C740.227 408.966 740.604 407.137 741.359 405.535C742.115 403.934 743.195 402.69 744.602 401.805C746.021 400.919 747.694 400.477 749.621 400.477C751.991 400.477 753.957 401.186 755.52 402.605C757.095 404.025 757.935 405.867 758.039 408.133H754.621C754.517 406.766 753.996 405.646 753.059 404.773C752.134 403.888 750.988 403.445 749.621 403.445C747.785 403.445 746.359 404.109 745.344 405.438C744.341 406.753 743.84 408.66 743.84 411.16V411.844C743.84 414.279 744.341 416.154 745.344 417.469C746.346 418.784 747.779 419.441 749.641 419.441ZM761.145 411.238C761.145 409.168 761.548 407.306 762.355 405.652C763.176 403.999 764.309 402.723 765.754 401.824C767.212 400.926 768.872 400.477 770.734 400.477C773.612 400.477 775.936 401.473 777.707 403.465C779.491 405.457 780.383 408.107 780.383 411.414V411.668C780.383 413.725 779.986 415.574 779.191 417.215C778.41 418.842 777.284 420.112 775.812 421.023C774.354 421.935 772.674 422.391 770.773 422.391C767.909 422.391 765.585 421.395 763.801 419.402C762.03 417.41 761.145 414.773 761.145 411.492V411.238ZM764.777 411.668C764.777 414.012 765.318 415.893 766.398 417.312C767.492 418.732 768.951 419.441 770.773 419.441C772.609 419.441 774.068 418.725 775.148 417.293C776.229 415.848 776.77 413.829 776.77 411.238C776.77 408.921 776.216 407.046 775.109 405.613C774.016 404.168 772.557 403.445 770.734 403.445C768.951 403.445 767.512 404.155 766.418 405.574C765.324 406.993 764.777 409.025 764.777 411.668ZM788.332 400.867L788.449 403.523C790.064 401.492 792.173 400.477 794.777 400.477C799.243 400.477 801.496 402.996 801.535 408.035V422H797.922V408.016C797.909 406.492 797.557 405.366 796.867 404.637C796.19 403.908 795.129 403.543 793.684 403.543C792.512 403.543 791.483 403.855 790.598 404.48C789.712 405.105 789.022 405.926 788.527 406.941V422H784.914V400.867H788.332ZM811.887 395.75V400.867H815.832V403.66H811.887V416.766C811.887 417.612 812.062 418.25 812.414 418.68C812.766 419.096 813.365 419.305 814.211 419.305C814.628 419.305 815.201 419.227 815.93 419.07V422C814.979 422.26 814.055 422.391 813.156 422.391C811.542 422.391 810.324 421.902 809.504 420.926C808.684 419.949 808.273 418.562 808.273 416.766V403.66H804.426V400.867H808.273V395.75H811.887ZM823.996 422H820.383V400.867H823.996V422ZM820.09 395.262C820.09 394.676 820.266 394.181 820.617 393.777C820.982 393.374 821.516 393.172 822.219 393.172C822.922 393.172 823.456 393.374 823.82 393.777C824.185 394.181 824.367 394.676 824.367 395.262C824.367 395.848 824.185 396.336 823.82 396.727C823.456 397.117 822.922 397.312 822.219 397.312C821.516 397.312 820.982 397.117 820.617 396.727C820.266 396.336 820.09 395.848 820.09 395.262ZM833.215 400.867L833.332 403.523C834.947 401.492 837.056 400.477 839.66 400.477C844.126 400.477 846.379 402.996 846.418 408.035V422H842.805V408.016C842.792 406.492 842.44 405.366 841.75 404.637C841.073 403.908 840.012 403.543 838.566 403.543C837.395 403.543 836.366 403.855 835.48 404.48C834.595 405.105 833.905 405.926 833.41 406.941V422H829.797V400.867H833.215ZM864.914 419.91C863.508 421.564 861.444 422.391 858.723 422.391C856.47 422.391 854.751 421.74 853.566 420.438C852.395 419.122 851.802 417.182 851.789 414.617V400.867H855.402V414.52C855.402 417.723 856.704 419.324 859.309 419.324C862.069 419.324 863.905 418.296 864.816 416.238V400.867H868.43V422H864.992L864.914 419.91ZM882.707 422.391C879.842 422.391 877.512 421.453 875.715 419.578C873.918 417.69 873.02 415.171 873.02 412.02V411.355C873.02 409.259 873.417 407.391 874.211 405.75C875.018 404.096 876.138 402.807 877.57 401.883C879.016 400.945 880.578 400.477 882.258 400.477C885.005 400.477 887.141 401.382 888.664 403.191C890.188 405.001 890.949 407.592 890.949 410.965V412.469H876.633C876.685 414.552 877.29 416.238 878.449 417.527C879.621 418.803 881.105 419.441 882.902 419.441C884.178 419.441 885.259 419.181 886.145 418.66C887.03 418.139 887.805 417.449 888.469 416.59L890.676 418.309C888.905 421.03 886.249 422.391 882.707 422.391ZM882.258 403.445C880.799 403.445 879.576 403.979 878.586 405.047C877.596 406.102 876.984 407.586 876.75 409.5H887.336V409.227C887.232 407.391 886.737 405.971 885.852 404.969C884.966 403.953 883.768 403.445 882.258 403.445ZM895.031 427.664L892.98 426.258C894.204 424.552 894.842 422.794 894.895 420.984V417.723H898.43V420.555C898.43 421.87 898.104 423.185 897.453 424.5C896.815 425.815 896.008 426.87 895.031 427.664ZM916.848 422H913.234V392H916.848V422ZM921.691 411.238C921.691 409.168 922.095 407.306 922.902 405.652C923.723 403.999 924.855 402.723 926.301 401.824C927.759 400.926 929.419 400.477 931.281 400.477C934.159 400.477 936.483 401.473 938.254 403.465C940.038 405.457 940.93 408.107 940.93 411.414V411.668C940.93 413.725 940.533 415.574 939.738 417.215C938.957 418.842 937.831 420.112 936.359 421.023C934.901 421.935 933.221 422.391 931.32 422.391C928.456 422.391 926.132 421.395 924.348 419.402C922.577 417.41 921.691 414.773 921.691 411.492V411.238ZM925.324 411.668C925.324 414.012 925.865 415.893 926.945 417.312C928.039 418.732 929.497 419.441 931.32 419.441C933.156 419.441 934.615 418.725 935.695 417.293C936.776 415.848 937.316 413.829 937.316 411.238C937.316 408.921 936.763 407.046 935.656 405.613C934.562 404.168 933.104 403.445 931.281 403.445C929.497 403.445 928.059 404.155 926.965 405.574C925.871 406.993 925.324 409.025 925.324 411.668ZM944.602 411.258C944.602 407.964 945.363 405.346 946.887 403.406C948.41 401.453 950.428 400.477 952.941 400.477C955.52 400.477 957.531 401.388 958.977 403.211L959.152 400.867H962.453V421.492C962.453 424.227 961.639 426.382 960.012 427.957C958.397 429.533 956.223 430.32 953.488 430.32C951.965 430.32 950.474 429.995 949.016 429.344C947.557 428.693 946.444 427.801 945.676 426.668L947.551 424.5C949.1 426.414 950.995 427.371 953.234 427.371C954.992 427.371 956.359 426.876 957.336 425.887C958.326 424.897 958.82 423.504 958.82 421.707V419.891C957.375 421.557 955.402 422.391 952.902 422.391C950.428 422.391 948.423 421.395 946.887 419.402C945.363 417.41 944.602 414.695 944.602 411.258ZM948.234 411.668C948.234 414.051 948.723 415.926 949.699 417.293C950.676 418.647 952.043 419.324 953.801 419.324C956.079 419.324 957.753 418.289 958.82 416.219V406.57C957.714 404.552 956.053 403.543 953.84 403.543C952.082 403.543 950.708 404.227 949.719 405.594C948.729 406.961 948.234 408.986 948.234 411.668ZM981.77 422H978.156V400.867H981.77V422ZM977.863 395.262C977.863 394.676 978.039 394.181 978.391 393.777C978.755 393.374 979.289 393.172 979.992 393.172C980.695 393.172 981.229 393.374 981.594 393.777C981.958 394.181 982.141 394.676 982.141 395.262C982.141 395.848 981.958 396.336 981.594 396.727C981.229 397.117 980.695 397.312 979.992 397.312C979.289 397.312 978.755 397.117 978.391 396.727C978.039 396.336 977.863 395.848 977.863 395.262ZM990.988 400.867L991.105 403.523C992.72 401.492 994.829 400.477 997.434 400.477C1001.9 400.477 1004.15 402.996 1004.19 408.035V422H1000.58V408.016C1000.57 406.492 1000.21 405.366 999.523 404.637C998.846 403.908 997.785 403.543 996.34 403.543C995.168 403.543 994.139 403.855 993.254 404.48C992.368 405.105 991.678 405.926 991.184 406.941V422H987.57V400.867H990.988ZM1038.27 417.02L1042.34 400.867H1045.95L1039.8 422H1036.87L1031.73 405.984L1026.73 422H1023.8L1017.67 400.867H1021.26L1025.42 416.688L1030.34 400.867H1033.25L1038.27 417.02ZM1053.57 422H1049.95V400.867H1053.57V422ZM1049.66 395.262C1049.66 394.676 1049.84 394.181 1050.19 393.777C1050.55 393.374 1051.09 393.172 1051.79 393.172C1052.49 393.172 1053.03 393.374 1053.39 393.777C1053.76 394.181 1053.94 394.676 1053.94 395.262C1053.94 395.848 1053.76 396.336 1053.39 396.727C1053.03 397.117 1052.49 397.312 1051.79 397.312C1051.09 397.312 1050.55 397.117 1050.19 396.727C1049.84 396.336 1049.66 395.848 1049.66 395.262ZM1064.27 395.75V400.867H1068.21V403.66H1064.27V416.766C1064.27 417.612 1064.45 418.25 1064.8 418.68C1065.15 419.096 1065.75 419.305 1066.59 419.305C1067.01 419.305 1067.58 419.227 1068.31 419.07V422C1067.36 422.26 1066.44 422.391 1065.54 422.391C1063.92 422.391 1062.71 421.902 1061.89 420.926C1061.07 419.949 1060.66 418.562 1060.66 416.766V403.66H1056.81V400.867H1060.66V395.75H1064.27ZM1076.07 403.426C1077.67 401.46 1079.75 400.477 1082.32 400.477C1086.78 400.477 1089.04 402.996 1089.07 408.035V422H1085.46V408.016C1085.45 406.492 1085.1 405.366 1084.41 404.637C1083.73 403.908 1082.67 403.543 1081.22 403.543C1080.05 403.543 1079.02 403.855 1078.14 404.48C1077.25 405.105 1076.56 405.926 1076.07 406.941V422H1072.45V392H1076.07V403.426ZM1113.35 409.324C1110.14 408.4 1107.79 407.267 1106.32 405.926C1104.86 404.572 1104.13 402.905 1104.13 400.926C1104.13 398.686 1105.02 396.837 1106.81 395.379C1108.61 393.908 1110.94 393.172 1113.8 393.172C1115.75 393.172 1117.49 393.549 1119.02 394.305C1120.55 395.06 1121.74 396.102 1122.57 397.43C1123.42 398.758 1123.84 400.21 1123.84 401.785H1120.07C1120.07 400.066 1119.52 398.719 1118.43 397.742C1117.34 396.753 1115.79 396.258 1113.8 396.258C1111.95 396.258 1110.51 396.668 1109.46 397.488C1108.44 398.296 1107.92 399.422 1107.92 400.867C1107.92 402.026 1108.41 403.009 1109.39 403.816C1110.38 404.611 1112.05 405.34 1114.41 406.004C1116.78 406.668 1118.62 407.404 1119.95 408.211C1121.29 409.005 1122.28 409.936 1122.92 411.004C1123.57 412.072 1123.9 413.328 1123.9 414.773C1123.9 417.078 1123 418.927 1121.2 420.32C1119.41 421.701 1117 422.391 1114 422.391C1112.04 422.391 1110.22 422.02 1108.53 421.277C1106.83 420.522 1105.53 419.493 1104.6 418.191C1103.69 416.889 1103.23 415.411 1103.23 413.758H1107C1107 415.477 1107.64 416.837 1108.9 417.84C1110.17 418.829 1111.87 419.324 1114 419.324C1115.98 419.324 1117.49 418.921 1118.55 418.113C1119.6 417.306 1120.13 416.206 1120.13 414.812C1120.13 413.419 1119.64 412.345 1118.66 411.59C1117.69 410.822 1115.92 410.066 1113.35 409.324ZM1146.01 411.668C1146.01 414.884 1145.27 417.475 1143.8 419.441C1142.33 421.408 1140.34 422.391 1137.82 422.391C1135.26 422.391 1133.24 421.577 1131.77 419.949V430.125H1128.16V400.867H1131.46L1131.63 403.211C1133.1 401.388 1135.15 400.477 1137.77 400.477C1140.3 400.477 1142.31 401.434 1143.78 403.348C1145.27 405.262 1146.01 407.924 1146.01 411.336V411.668ZM1142.39 411.258C1142.39 408.875 1141.89 406.993 1140.87 405.613C1139.86 404.233 1138.46 403.543 1136.69 403.543C1134.5 403.543 1132.86 404.513 1131.77 406.453V416.551C1132.85 418.478 1134.5 419.441 1136.73 419.441C1138.46 419.441 1139.84 418.758 1140.85 417.391C1141.88 416.01 1142.39 413.966 1142.39 411.258ZM1149.66 411.238C1149.66 409.168 1150.06 407.306 1150.87 405.652C1151.69 403.999 1152.82 402.723 1154.27 401.824C1155.73 400.926 1157.39 400.477 1159.25 400.477C1162.13 400.477 1164.45 401.473 1166.22 403.465C1168.01 405.457 1168.9 408.107 1168.9 411.414V411.668C1168.9 413.725 1168.5 415.574 1167.71 417.215C1166.93 418.842 1165.8 420.112 1164.33 421.023C1162.87 421.935 1161.19 422.391 1159.29 422.391C1156.42 422.391 1154.1 421.395 1152.32 419.402C1150.55 417.41 1149.66 414.773 1149.66 411.492V411.238ZM1153.29 411.668C1153.29 414.012 1153.83 415.893 1154.91 417.312C1156.01 418.732 1157.47 419.441 1159.29 419.441C1161.12 419.441 1162.58 418.725 1163.66 417.293C1164.74 415.848 1165.29 413.829 1165.29 411.238C1165.29 408.921 1164.73 407.046 1163.62 405.613C1162.53 404.168 1161.07 403.445 1159.25 403.445C1157.47 403.445 1156.03 404.155 1154.93 405.574C1153.84 406.993 1153.29 409.025 1153.29 411.668ZM1178.33 395.75V400.867H1182.28V403.66H1178.33V416.766C1178.33 417.612 1178.51 418.25 1178.86 418.68C1179.21 419.096 1179.81 419.305 1180.66 419.305C1181.07 419.305 1181.65 419.227 1182.38 419.07V422C1181.42 422.26 1180.5 422.391 1179.6 422.391C1177.99 422.391 1176.77 421.902 1175.95 420.926C1175.13 419.949 1174.72 418.562 1174.72 416.766V403.66H1170.87V400.867H1174.72V395.75H1178.33ZM1190.44 422H1186.83V400.867H1190.44V422ZM1186.54 395.262C1186.54 394.676 1186.71 394.181 1187.06 393.777C1187.43 393.374 1187.96 393.172 1188.66 393.172C1189.37 393.172 1189.9 393.374 1190.27 393.777C1190.63 394.181 1190.81 394.676 1190.81 395.262C1190.81 395.848 1190.63 396.336 1190.27 396.727C1189.9 397.117 1189.37 397.312 1188.66 397.312C1187.96 397.312 1187.43 397.117 1187.06 396.727C1186.71 396.336 1186.54 395.848 1186.54 395.262ZM1198.02 422V403.66H1194.68V400.867H1198.02V398.699C1198.02 396.434 1198.62 394.682 1199.84 393.445C1201.05 392.208 1202.76 391.59 1204.97 391.59C1205.81 391.59 1206.63 391.701 1207.45 391.922L1207.26 394.852C1206.65 394.734 1205.99 394.676 1205.3 394.676C1204.13 394.676 1203.23 395.021 1202.59 395.711C1201.95 396.388 1201.63 397.365 1201.63 398.641V400.867H1206.14V403.66H1201.63V422H1198.02ZM1217.06 416.707L1221.98 400.867H1225.85L1217.36 425.262C1216.04 428.777 1213.95 430.535 1211.09 430.535L1210.4 430.477L1209.05 430.223V427.293L1210.03 427.371C1211.26 427.371 1212.21 427.124 1212.88 426.629C1213.57 426.134 1214.14 425.229 1214.58 423.914L1215.38 421.766L1207.84 400.867H1211.79L1217.06 416.707Z" fill="url(#paint1_linear_2:3)"/>
<g filter="url(#filter0_d_2:3)">
<path d="M592 511.5C592 490.789 608.789 474 629.5 474H1290.5C1311.21 474 1328 490.789 1328 511.5C1328 532.211 1311.21 549 1290.5 549H629.5C608.789 549 592 532.211 592 511.5Z" fill="white"/>
<path d="M781.8 520.892H793.592V523.575H778.501V498.693H781.8V520.892ZM816.578 511.937C816.578 514.375 816.167 516.506 815.347 518.329C814.527 520.14 813.365 521.525 811.861 522.482C810.357 523.439 808.602 523.917 806.597 523.917C804.638 523.917 802.9 523.439 801.385 522.482C799.869 521.513 798.69 520.14 797.847 518.363C797.015 516.574 796.588 514.506 796.565 512.159V510.365C796.565 507.972 796.981 505.859 797.813 504.025C798.645 502.19 799.818 500.789 801.333 499.82C802.86 498.841 804.603 498.351 806.563 498.351C808.557 498.351 810.311 498.835 811.827 499.803C813.353 500.76 814.527 502.156 815.347 503.99C816.167 505.813 816.578 507.938 816.578 510.365V511.937ZM813.313 510.331C813.313 507.38 812.721 505.118 811.536 503.546C810.351 501.962 808.694 501.171 806.563 501.171C804.489 501.171 802.854 501.962 801.658 503.546C800.473 505.118 799.864 507.306 799.83 510.109V511.937C799.83 514.797 800.428 517.047 801.624 518.688C802.832 520.317 804.489 521.132 806.597 521.132C808.716 521.132 810.357 520.362 811.519 518.824C812.681 517.275 813.279 515.059 813.313 512.176V510.331ZM841.102 520.311C840.258 521.519 839.079 522.425 837.564 523.028C836.06 523.621 834.306 523.917 832.3 523.917C830.272 523.917 828.472 523.444 826.9 522.499C825.328 521.542 824.109 520.186 823.243 518.431C822.388 516.677 821.95 514.643 821.927 512.33V510.16C821.927 506.411 822.798 503.506 824.542 501.444C826.296 499.382 828.757 498.351 831.924 498.351C834.522 498.351 836.613 499.017 838.196 500.35C839.78 501.672 840.748 503.552 841.102 505.99H837.82C837.205 502.697 835.245 501.051 831.941 501.051C829.743 501.051 828.073 501.826 826.934 503.375C825.806 504.913 825.236 507.146 825.225 510.074V512.108C825.225 514.899 825.863 517.121 827.139 518.773C828.415 520.414 830.141 521.234 832.317 521.234C833.548 521.234 834.625 521.097 835.547 520.824C836.47 520.55 837.234 520.089 837.837 519.44V513.851H832.078V511.185H841.102V520.311ZM860.02 523.575H856.739V498.693H860.02V523.575ZM886.39 523.575H883.091L870.564 504.401V523.575H867.266V498.693H870.564L883.125 517.953V498.693H886.39V523.575ZM907.496 515.731L907.974 519.012L908.675 516.056L913.597 498.693H916.365L921.167 516.056L921.851 519.064L922.381 515.714L926.243 498.693H929.542L923.509 523.575H920.518L915.391 505.443L914.998 503.546L914.605 505.443L909.29 523.575H906.299L900.284 498.693H903.565L907.496 515.731ZM937.95 523.575H934.668V498.693H937.95V523.575ZM961.875 501.393H953.877V523.575H950.613V501.393H942.632V498.693H961.875V501.393ZM985.921 523.575H982.623V512.074H970.079V523.575H966.797V498.693H970.079V509.391H982.623V498.693H985.921V523.575ZM1008.99 512.484C1006.18 511.675 1004.13 510.684 1002.84 509.51C1001.56 508.326 1000.93 506.867 1000.93 505.135C1000.93 503.176 1001.71 501.558 1003.27 500.282C1004.84 498.994 1006.88 498.351 1009.39 498.351C1011.09 498.351 1012.62 498.681 1013.95 499.342C1015.29 500.003 1016.33 500.914 1017.06 502.076C1017.8 503.238 1018.17 504.509 1018.17 505.887H1014.87C1014.87 504.383 1014.39 503.204 1013.44 502.35C1012.48 501.484 1011.13 501.051 1009.39 501.051C1007.77 501.051 1006.5 501.41 1005.59 502.128C1004.69 502.834 1004.24 503.819 1004.24 505.084C1004.24 506.098 1004.67 506.958 1005.52 507.665C1006.39 508.36 1007.85 508.998 1009.92 509.579C1011.99 510.16 1013.61 510.804 1014.77 511.51C1015.94 512.205 1016.81 513.02 1017.37 513.954C1017.94 514.888 1018.22 515.987 1018.22 517.252C1018.22 519.269 1017.43 520.887 1015.86 522.106C1014.29 523.313 1012.19 523.917 1009.56 523.917C1007.85 523.917 1006.25 523.592 1004.77 522.943C1003.29 522.282 1002.14 521.382 1001.34 520.243C1000.54 519.104 1000.14 517.81 1000.14 516.363H1003.44C1003.44 517.867 1003.99 519.058 1005.1 519.935C1006.21 520.801 1007.7 521.234 1009.56 521.234C1011.29 521.234 1012.62 520.881 1013.54 520.174C1014.46 519.468 1014.92 518.505 1014.92 517.286C1014.92 516.067 1014.5 515.127 1013.64 514.466C1012.79 513.794 1011.24 513.133 1008.99 512.484ZM1026.95 513.834V523.575H1023.67V498.693H1032.85C1035.57 498.693 1037.7 499.388 1039.24 500.777C1040.79 502.167 1041.57 504.007 1041.57 506.298C1041.57 508.713 1040.81 510.576 1039.29 511.886C1037.79 513.185 1035.63 513.834 1032.82 513.834H1026.95ZM1026.95 511.151H1032.85C1034.6 511.151 1035.95 510.741 1036.88 509.921C1037.82 509.089 1038.28 507.893 1038.28 506.332C1038.28 504.851 1037.82 503.666 1036.88 502.777C1035.95 501.888 1034.67 501.427 1033.04 501.393H1026.95V511.151ZM1066.12 511.937C1066.12 514.375 1065.71 516.506 1064.89 518.329C1064.07 520.14 1062.91 521.525 1061.41 522.482C1059.9 523.439 1058.15 523.917 1056.14 523.917C1054.18 523.917 1052.45 523.439 1050.93 522.482C1049.42 521.513 1048.24 520.14 1047.39 518.363C1046.56 516.574 1046.13 514.506 1046.11 512.159V510.365C1046.11 507.972 1046.53 505.859 1047.36 504.025C1048.19 502.19 1049.36 500.789 1050.88 499.82C1052.41 498.841 1054.15 498.351 1056.11 498.351C1058.1 498.351 1059.86 498.835 1061.37 499.803C1062.9 500.76 1064.07 502.156 1064.89 503.99C1065.71 505.813 1066.12 507.938 1066.12 510.365V511.937ZM1062.86 510.331C1062.86 507.38 1062.27 505.118 1061.08 503.546C1059.9 501.962 1058.24 501.171 1056.11 501.171C1054.04 501.171 1052.4 501.962 1051.2 503.546C1050.02 505.118 1049.41 507.306 1049.38 510.109V511.937C1049.38 514.797 1049.97 517.047 1051.17 518.688C1052.38 520.317 1054.04 521.132 1056.14 521.132C1058.26 521.132 1059.9 520.362 1061.06 518.824C1062.23 517.275 1062.83 515.059 1062.86 512.176V510.331ZM1088.99 501.393H1080.99V523.575H1077.73V501.393H1069.75V498.693H1088.99V501.393ZM1097.43 523.575H1094.15V498.693H1097.43V523.575ZM1118.4 512.587H1107.96V523.575H1104.68V498.693H1120.09V501.393H1107.96V509.903H1118.4V512.587ZM1132.84 511.185L1139.34 498.693H1143.06L1134.48 514.296V523.575H1131.2V514.296L1122.62 498.693H1126.38L1132.84 511.185Z" fill="#6F73D2"/>
</g>
<defs>
<filter id="filter0_d_2:3" x="577" y="464" width="766" height="105" filterUnits="userSpaceOnUse" color-interpolation-filters="sRGB">
<feFlood flood-opacity="0" result="BackgroundImageFix"/>
<feColorMatrix in="SourceAlpha" type="matrix" values="0 0 0 0 0 0 0 0 0 0 0 0 0 0 0 0 0 0 127 0" result="hardAlpha"/>
<feOffset dy="5"/>
<feGaussianBlur stdDeviation="7.5"/>
<feComposite in2="hardAlpha" operator="out"/>
<feColorMatrix type="matrix" values="0 0 0 0 0.435294 0 0 0 0 0.45098 0 0 0 0 0.823529 0 0 0 0.25 0"/>
<feBlend mode="normal" in2="BackgroundImageFix" result="effect1_dropShadow_2:3"/>
<feBlend mode="normal" in="SourceGraphic" in2="effect1_dropShadow_2:3" result="shape"/>
</filter>
<linearGradient id="paint0_linear_2:3" x1="960" y1="0" x2="960" y2="1080" gradientUnits="userSpaceOnUse">
<stop stop-color="#A876DB"/>
<stop offset="1" stop-color="#6F73D2"/>
</linearGradient>
<linearGradient id="paint1_linear_2:3" x1="782.741" y1="336.22" x2="901.502" y2="583.185" gradientUnits="userSpaceOnUse">
<stop stop-color="#6F73D2"/>
<stop offset="1" stop-color="#FF6666"/>
</linearGradient>
</defs>
</svg>
